<?xml version="1.0" encoding="UTF-8"?><svg xmlns="http://www.w3.org/2000/svg" xml:space="preserve" viewBox="0 0 848 400" version="1.2" baseProfile="tiny-ps"><title>westmark-bimi</title><path d="M199.393 225.35c-.687 3.949-2.63 5.217-6.336 5.079-10.954-.41-8.697 1.41-12.218-8.98-4.862-14.348-9.438-28.791-14.204-43.17-.654-1.973-.914-4.173-2.85-6.169-5.221 15.222-10.334 30.126-15.444 45.031-.649 1.89-1.272 3.79-1.931 5.676-3.2 9.165-1.824 7.06-10.708 7.626-4.688.298-6.698-1.481-8.238-5.798-9.904-27.757-20.096-55.41-30.188-83.1-1.663-4.563-3.183-9.183-8.172-11.405-1.674-.745-1.69-2.291-1.027-4.464h10.641c9.5.001 19-.02 28.498.026 1.43.007 3.201-.288 3.792 1.604.46 1.475-.443 2.392-1.59 3.31-3.44 2.749-2.37 6.35-1.27 9.64 4.699 14.046 9.552 28.041 14.375 42.046 1.836 5.331 3.74 10.64 6.066 17.243 4.463-12.618 8.479-24.027 12.547-35.416.642-1.796-.26-3.275-.748-4.807-2.227-6.98-4.564-13.923-6.842-20.886-1.109-3.387-2.387-6.628-6.07-8.074-1.422-.558-2.182-1.6-1.86-3.12.38-1.793 1.94-1.56 3.23-1.563 13-.017 25.999-.021 38.998.02 1.409.005 3.302-.368 3.541 1.778.264 2.365-1.622 2.439-3.307 2.77-5.504 1.083-7.034 2.803-5.487 7.734 6.16 19.63 12.609 39.168 19.962 58.781 3.39-10.709 6.77-21.422 10.178-32.125 1.82-5.711 3.377-11.473 4.4-17.397 1.68-9.745-.442-13.68-9.667-17.003-1.364-.491-2.526-1.058-2.402-2.699.14-1.873 1.677-1.84 2.987-1.845 8.332-.025 16.665-.016 24.997.026 1.124.006 2.45-.095 2.932 1.33.477 1.413.116 2.651-1.148 3.502-7.467 5.025-10.082 12.913-12.56 20.954-7.547 24.496-15.183 48.964-22.877 73.844zm282.253-67.073c.99 1.283 1.42 2.646 3.242 3.217 5.103-6.875 12.313-9.342 20.67-10.13 15.03-1.416 23.42 5.38 23.694 20.406.255 13.995.087 27.997.095 41.996.003 5.475-.18 11.014 7.183 12.19 1.07.172 1.566 1.161 1.483 2.295-.11 1.485-1.141 1.976-2.4 1.98-11.497.034-22.995.036-34.493.034-1.241 0-2.37-.35-2.7-1.722-.31-1.289.165-2.31 1.453-2.805 3.665-1.41 4.066-4.55 4.069-7.816.013-16.497.003-32.995-.054-49.492-.01-3.242-.332-6.64-3.985-7.875-3.974-1.342-7.594-.236-10.433 2.901-2.534 2.801-4.093 6.083-4.1 9.93-.026 14.498-.045 28.997.01 43.496.015 4.042.933 7.669 5.563 8.935 1.26.344 2.013 1.215 1.842 2.584-.226 1.803-1.678 1.877-3.016 1.879-10.831.016-21.663 0-32.495-.02-1.212-.002-2.403-.214-2.838-1.56-.505-1.567.273-2.501 1.695-3.096 3.118-1.306 3.761-3.99 3.762-6.979.008-16.997.025-33.994-.017-50.99-.008-2.888-.299-5.94-3.533-7.085-3.41-1.207-6.582-.237-9.255 2.172-3.48 3.135-4.6 7.348-4.64 11.745-.13 13.997-.178 28 .07 41.994.064 3.628-.104 7.925 4.711 9.52 1.107.366 1.232 1.533 1.013 2.556-.44 2.055-2.168 1.763-3.61 1.766-8.666.013-17.331-.024-25.997-.042-2.333-.005-4.666.033-6.997-.024-1.19-.029-2.41-.241-2.669-1.716-.283-1.618.52-2.557 2.093-2.784 5.197-.752 6.313-4.859 6.337-8.861.102-16.817.927-33.648-.469-50.452-.328-3.952-1.614-7.154-5.932-8.212-1.502-.368-2.27-1.357-2.11-2.918.187-1.828 1.52-1.932 2.942-1.832 9.02.636 17.966-.142 26.867-1.506 5.376-.823 2.557 4.41 4.906 6.28 12.419-7.467 25.137-11.964 38.043.041zM708.048 143c.006 13.326-.007 26.151.046 38.977.006 1.581-.536 3.638 1.426 4.412 1.769.699 3.2-.64 4.402-1.765 4.374-4.096 8.906-8.059 12.945-12.47 5.287-5.776 3.614-11.296-3.816-13.658-1.83-.582-4.585-.388-4.103-3.223.553-3.254 3.35-1.698 5.302-1.702 9.16-.02 18.32-.002 27.48.007 1.587.001 3.633-.75 4.175 1.528.59 2.477-1.565 2.973-3.256 3.615-8.377 3.182-14.343 9.503-20.498 15.606-1.71 1.695-1.866 3.367-.635 5.338 9.416 15.078 15.938 31.889 27.402 45.736.794.96 1.35 1.922.985 3.167-.48 1.634-1.868 1.72-3.224 1.721-10.327.017-20.653.027-30.979.003-1.292-.003-2.731.14-3.057-1.756-.483-2.804 2.599-2.665 3.832-4.96-5.204-10.217-9.702-21.25-17.237-30.784-1.244 9.837-1.818 19.387-.483 28.906.355 2.526 2.735 3.608 5.194 4.043 1.56.275 2.357 1.193 2.108 2.8-.231 1.495-1.442 1.722-2.637 1.724-12.158.02-24.316.019-36.474-.01-1.44-.003-2.692-.54-2.825-2.202-.142-1.768 1.181-2.127 2.564-2.415 4.41-.92 5.89-4.216 5.9-8.131.083-28.816.12-57.632-.038-86.447-.024-4.344-.934-8.774-6.369-10.075-1.382-.33-2.442-1.33-2.14-2.915.394-2.064 2.114-1.788 3.587-1.65 8.684.813 17.3-.016 25.85-1.348 3.548-.552 4.556.874 4.558 3.943l.015 23.985zm-142.796 8.768c6.076-.315 11.69-.602 17.355-.15 12.94 1.034 20.49 8.583 20.669 21.596.196 14.318.009 28.641.109 42.962.027 3.907-1.315 9.476 6.2 6.589 1.05-.403 1.96.38 2.316 1.413.565 1.64-.708 2.375-1.757 3.195-8.903 6.962-24.95 4.788-31.736-4.733-5.83 6.397-13.047 9.32-21.724 8.708-7.942-.56-14.355-5.077-16.624-12.187-2.761-8.655-.364-16.947 6.3-21.927 5.032-3.761 10.912-5.607 16.756-7.565 2.838-.95 5.64-2.013 8.438-3.074 4.613-1.749 6.782-5.062 6.519-10.042-.184-3.489-.344-6.997-.192-10.482.383-8.812-9.384-13.237-16.16-8.166 2.87 2.73 5.884 5.381 6.513 9.595.951 6.376-2.012 11.61-8.008 13.874-5.931 2.24-11.708.782-14.727-3.718-3.917-5.838-3.4-13.11 1.335-17.882 4.947-4.986 11.433-6.553 18.418-8.006m12.795 56.62c-.162-6.019.414-12.083-.49-18.375-10.26 5.875-14.529 13.435-13.287 22.598.6 4.428 3.247 6.378 7.488 6.347 4.85-.036 6.272-2.285 6.289-10.57zM235.023 222.95c-8.363-9.348-9.87-20.469-9.703-31.972.154-10.678 2.156-20.822 9.849-29.043 9.594-10.254 28.427-13.976 41.11-8.022 9.548 4.483 13.196 12.725 14.007 22.521.734 8.864.53 8.882-8.222 8.884-8.158.002-16.315-.013-24.472.006-6.266.015-6.268.06-6.248 6.5.01 3.69.633 7.307 1.628 10.809 4.354 15.317 19.246 18.947 30.419 7.51 1.713-1.753 3.026-4.79 6.77-2.235-2.93 10.76-9.084 19.221-19.67 22.672-12.722 4.146-25.007 2.368-35.468-7.63m16.397-44.619c.145 2.326 1.838 2.475 3.569 2.484 3.655.018 7.313-.072 10.967.004 2.819.059 3.872-1.275 3.697-3.976-.3-4.647-.783-9.282-2.13-13.738-.898-2.97-1.775-6.48-5.703-6.707-4.061-.236-5.545 3.146-7.004 6.126-2.306 4.709-2.415 9.954-3.396 15.807zm52.93 10.246c-4.595-5.652-7.23-11.708-6.191-18.704 1.436-9.665 10.308-16.96 21.03-18.243 7.962-.952 15.58-.165 22.89 3.145 2.587 1.17 4.768 1.563 6.054-1.75.467-1.202 1.552-1.683 2.868-1.45 1.404.25 1.994 1.29 1.962 2.516-.195 7.479-.46 14.956-.737 22.433-.05 1.348-.803 2.177-2.219 2.155-1.366-.02-2.06-.855-2.384-2.122-.66-2.577-1.12-5.238-2.085-7.697-2.527-6.437-5.959-12.128-13.89-12.539-7.794-.404-11.636 5.376-8.522 12.56 1.306 3.012 3.654 5.13 6.107 7.14 5.924 4.852 12.062 9.46 17.775 14.548 6.846 6.095 10.679 13.682 8.74 23.116-2.043 9.946-12.573 17.727-24.579 18.58-7.445.529-14.591-.305-21.257-4.032-2.87-1.605-5.918-2.83-7.715 1.608-.513 1.267-1.736 1.49-2.967 1.171-1.167-.302-1.464-1.33-1.463-2.344.002-8.325.031-16.65.1-24.975.012-1.422.488-2.703 2.232-2.74 2.182-.048 2.844 1.58 3.048 3.277.624 5.195 2.13 10.086 4.851 14.548 2.294 3.762 5.094 6.885 9.689 8.071 7.687 1.985 12.9-2.398 11.937-10.29-.445-3.65-2.325-6.534-4.955-8.987-6.693-6.243-13.391-12.48-20.32-18.995z"></path><path d="M648.628 222.265c2.062 2.181 4.418 2.943 6.912 3.359 1.75.291 4.1-.04 3.75 2.75-.341 2.739-2.762 1.9-4.403 1.91-9.157.048-18.315-.038-27.472-.063-3.996-.01-7.991.038-11.986.007-1.228-.01-2.344-.372-2.495-1.869-.138-1.353.452-2.338 1.815-2.53 5.688-.798 6.686-5.206 6.742-9.592.197-15.648.217-31.304-.079-46.949-.09-4.757-.705-9.885-6.916-11.316-1.532-.353-1.967-1.783-1.572-3.216.398-1.445 1.697-1.375 2.879-1.292 9.011.634 17.947-.144 26.844-1.492 2.622-.397 3.671.66 3.717 3.231.025 1.42-.484 2.967.85 4.702 4.454-5.127 9.86-8.314 16.709-8.7 8.312-.47 14.205 4.243 15.284 12.419 1.087 8.248-2.964 14.683-10.557 16.087-4.94.914-9.917.23-13.005-4.21-3.817-5.49-2.298-11.046 1.073-16.28-6.142 2.071-10.142 7.516-10.267 15.123-.219 13.317-.099 26.64-.014 39.96.017 2.657.639 5.277 2.191 7.961zm-255.554-57.104c.002 16.124-.001 31.768.011 47.413.001 1.663-.028 3.34.168 4.985.57 4.767 3.602 6.21 7.724 3.739.568-.34 1.038-.85 1.617-1.166 1.814-.987 2.66-5.137 5.364-2.75 2.838 2.502-.495 4.892-1.815 6.79-5.24 7.532-15.824 10.284-26.158 7.174-7.817-2.353-12.018-8.49-12.192-19.074-.256-15.64-.106-31.288-.129-46.932-.01-7.362-.01-7.362-7.302-7.914-.331-.026-.667-.006-.997-.041-1.453-.155-3.304.058-3.226-2.14.072-2.011 1.807-2.06 3.306-2.25 8.198-1.041 8.198-1.044 8.208-9.147.001-.832.095-1.676-.009-2.494-.595-4.692.788-7.008 6.167-6.846 6.19.187 11.945-2.471 17.78-4.754 2.59 3.764 1.02 7.7 1.462 11.363.1.82.015 1.663.011 2.495-.054 10.808.01 9.248 9.04 9.333.831.008 1.67-.024 2.493.07 1.468.168 3.254.147 3.335 2.188.085 2.166-1.724 2.093-3.198 2.175-1.494.082-2.995.043-4.493.047-7.038.02-7.038.019-7.167 7.736zM273.465 286.354c3.99-1.754 7.73-3.169 11.34-4.858 4.539-2.124 3.291-6.303 2.503-9.63-.832-3.512-3.868-4.08-6.89-3.09-1.299 1.611-.205 2.863-.12 4.122.186 2.764-.408 4.983-3.353 5.91-2.162.682-4.105.125-5.292-1.708-1.584-2.446-1.52-5.076.408-7.393 3.14-3.776 12.646-5.574 18.288-3.605 5.602 1.955 6.61 6.68 6.769 11.641.221 6.96.056 13.93.056 20.775 8.144 1.657 8.496 1.398 8.504-6.05.01-9.991.014-19.984-.029-29.976-.02-4.684 1.204-9.83-4.388-13.35 3.835-.408 7.686-1.234 11.498-1.078 2.669.109 2.113 3.011 2.098 4.87-.086 11.154-.357 22.305-.43 33.458-.038 5.645-1.35 11.714 5 15.758-2.55 1.613-4.738 1.02-6.796 1.148-5.634.35-11.282-.528-16.933.528-3.115.582-5.805-.914-7.402-3.7-7.526 4.91-13.828 4.975-17.497.435-3.453-4.273-2.574-9.49 2.666-14.207m14.354 2.505c-.252-1.342.578-3.032-1.259-3.916-3.18.773-5.764 2.473-7.55 5.187-1.368 2.079-1.278 4.423-.239 6.613.811 1.71 2.441 2.192 4.196 1.817 2.207-.472 4.085-1.609 4.59-3.955.342-1.586.191-3.277.262-5.746zm311.473 22.743c1.457 1.406 3.68.74 4.43 2.63-2.507 2.281-14.783 2.65-19.34.322 5.714-3.316 4.218-8.723 4.264-13.673.065-7.156-.07-14.315.051-21.47.077-4.553.439-9.092-4.914-11.374 4.622-3.094 12.183-2.749 14.914.51 5.378-3.469 11.22-4.9 16.64-.688 6.79 5.279 6.757 13.126 5.636 20.622-1.877 12.544-8.765 16.968-22.74 15.212-.553 2.639-.475 5.184 1.06 7.91m-1.867-29.26c-.002 3.478-.006 6.957-.006 10.435 0 3.642.271 7.264 4.854 7.943 4.374.648 6.873-1.912 8.075-5.772 2.066-6.637 1.887-13.381.408-20.104-.652-2.962-2.198-5.442-5.566-5.367-3.285.073-5.577 2.139-6.549 5.218-.69 2.185-.827 4.543-1.216 7.646zM436.178 293.55c-5.03-11.3-4.891-22.084 1.814-32.211 6.701-10.121 17.773-11.8 31.9-5.317 2.076.248 1.427-2.565 3.52-2.739 2.027.126 2.178 10.313-.249 16.597-2.325-.518-2.186-2.528-2.639-4.196-1.732-6.385-5.898-10.037-11.813-10.425-6.207-.408-10.533 2.275-12.993 8.75-3.55 9.343-3.483 18.903-.546 28.395 1.565 5.059 5.186 7.97 10.451 8.862 5.965 1.01 9.24-1.623 9.376-7.641.152-6.763.152-6.763-6.912-11.663 6.849-1.916 12.954-1.04 20.16-.75-5.817 6.876-2.688 14.458-4.56 21.988-2.885-3.287-5.405-2.312-8.418-.849-10.16 4.934-22.2 1.247-29.091-8.8zm122.146-8.58c.018 3.655-.013 6.817.069 9.977.055 2.117.74 4.026 2.98 4.696 2.267.679 4.302.024 5.828-1.818 1.404-1.693 2.466-3.618 2.502-5.862.1-5.985-.104-11.982.196-17.954.178-3.526-3.358-4.128-5.034-7.383 4.567-.246 8.571-.747 12.542-.558 2.098.1 1.829 2.473 1.842 4.082.058 6.988.14 13.977.02 20.962-.072 4.246-.183 8.361 4.68 10.453-4.291 2.873-12.428 2.66-14.853-.37-3.284 1.726-6.619 3.539-10.66 3.12-5.291-.546-8.31-3.125-8.735-8.464-.422-5.296-.476-10.625-.586-15.942-.094-4.58.782-9.45-4.747-12.427 4.348-1.523 8.48-1.854 12.61-1.362 1.609.191 1.293 2.117 1.308 3.384.057 4.99.032 9.981.038 15.467zm-188.565 15.373c1.32 1.325 1.538 2.667-.172 2.737-5.219.215-10.452.078-16.223.078 8.091-10.057 3.482-20.818 4.143-30.932.163-2.506-3.441-2.412-4.087-4.61 4.374-2.495 11.908-2.251 15.042.582 2.99-1.704 6.221-2.874 9.817-2.84 6.366.062 9.888 3.385 10.037 9.812.115 4.993.023 9.99.032 14.984.009 4.453-.966 9.278 4.984 11.95-6.184 1.527-11.801 1.33-17.988.877 7.428-9.78 3.966-19.994 3.576-29.715-.163-4.057-4.135-5.05-7.512-2.581-2.265 1.656-3.786 4.039-3.898 6.724-.27 6.48-.12 12.98-.122 19.47 0 1.489.882 2.454 2.371 3.464zm-138.075-39.462c-1.655 2.744-.466 6.383-4.25 8.536-1.348-5.237-.796-10.132-.603-14.957.069-1.708 1.848-1.662 3.173-1.664 11.326-.016 22.653.008 33.98-.012 2.365-.004 3.951.848 3.84 3.437-.185 4.277-.499 8.548-.774 13.08-3.263-.382-2.997-2.81-3.394-4.742-.823-4.005-2.506-7.302-6.962-8.132-2.644-.493-4.639.027-4.624 3.402.051 11.826.207 23.655-.038 35.475-.099 4.777 4.169 4.428 7.573 7.164-8.613 1.494-16.094.68-23.604.713 0-1.023-.069-1.601.01-1.622 6.771-1.806 6.722-7.1 6.646-12.58-.12-8.827.032-17.658-.083-26.485-.027-2.016 1.09-4.822-1.446-5.838-2.744-1.1-5.602-.365-7.797 1.88-.574.587-.99 1.33-1.647 2.345zm292.734 4.688c9.818.025 14.362 2.684 16.999 9.682 3.442 9.135 1.74 20.032-3.928 25.158-8.707 7.87-23.295 4.18-26.852-6.971-1.793-5.623-1.714-11.493-.004-17.148 1.968-6.514 6.382-10.31 13.785-10.721m7.538 8.153c-.993-2.843-2.567-5.362-5.888-5.19-3.476.178-5.07 2.953-5.878 5.96-1.756 6.537-1.505 13.19-.333 19.76.6 3.363 2.252 6.887 6.106 6.963 4.124.08 5.705-3.52 6.584-7.054 1.636-6.577 1.638-13.163-.59-20.439zm-184.55 8.448c-4.59.033-8.748.161-12.895.009-3.57-.132-4.697 1.48-4.399 4.85.396 4.477 1.297 8.642 5.721 10.884 3.11 1.576 6.09.895 8.917-1.005 1.628-1.094 2.227-3.38 4.504-3.813 2.154 1.616.843 3.176-.104 4.674-3.292 5.206-9.01 7.58-15.6 6.36-6.798-1.257-10.889-5.608-12.424-12.103-1.354-5.728-1.11-11.559 1.174-17.107 3.388-8.23 13.098-12.02 21.24-8.383 4.693 2.097 7.842 8.177 6.956 13.2-.284 1.608-1.155 2.28-3.09 2.434m-7.79-12.1c-1.756-2.008-3.66-2.045-5.643-.374-2.275 1.917-3.515 4.365-3.456 7.363.018.913.726 1.568 1.61 1.615 2.934.156 6.381 1.37 8.633-.672 2.278-2.068.288-4.918-1.144-7.931zm61.39 32.045c-2.631-2.723-3.23-5.793-3.273-9.012-.064-4.823-.05-9.647-.055-14.47-.009-7.235-.004-7.235-6.606-11.654 6.64-.307 6.643-4.371 6.912-8.865.205-3.432 3.934-2.251 6.137-2.798 2.39-.594 2.895 1.577 2.722 3.146-.59 5.366 1.16 8.276 6.999 7.75.8-.073 1.569.492 1.847 1.4-.119 1.01-.853 1.349-1.706 1.486-7.003 1.125-7.003 1.12-6.998 8.435.004 5.49-.068 10.98.046 16.467.043 2.064-.383 4.705 2.379 5.428 2.661.698 3.752-1.479 4.83-3.406.394-.707.8-1.475 2.532-1.554 1.174 3.115-.431 5.645-2.563 7.455-4.016 3.41-8.486 3.302-13.203.192zm79.704-35.66c2.807-.265 5.302-.308 7.767-.605 2.862-.345 4.992.157 5.002 4.73 3.113-4.156 6.472-5.586 10.57-4.847 3.364.606 5.86 4.229 4.952 7.441-.91 3.218-3.199 4.692-6.485 3.767-3.489-.982-3.256-4.118-3.106-7.426-4.395 2.235-5.645 5.747-6.031 9.59-.298 2.968-.196 5.99-.089 8.982.193 5.38-2.305 12.055 7.27 12.898-3.894 2.766-16.06 3.071-21.357.939 5.93-2.75 4.64-7.84 4.7-12.48.048-3.827.001-7.657-.038-11.485-.036-3.607.617-7.455-3.828-9.359-.853-.365-.413-1.447.673-2.145z"></path></svg>