<svg version="1.2" xmlns="http://www.w3.org/2000/svg" viewBox="0 0 300 150" width="500" height="250">
	<title>Westmark_logo</title>
	<style>
		.s0 { fill: #000000 } 
		.s1 { fill: none } 
	</style>
	<path id="Westmark Talent Group" fill-rule="evenodd" class="s0" d="m84.6 43v1q-1.1 0.5-2.3 1.8-1.2 1.4-2 4.4l-8.3 26.8q-0.5 0-1.1 0-0.5 0-1.1 0-0.4 0-1 0-0.5 0-1 0l-6.7-20.2-6.9 20.2q-0.5 0-1.1 0-0.5 0-1 0-0.5 0-1.1 0-0.5 0-1 0l-10.9-30q-0.7-1.7-1.5-2.3-0.8-0.7-1.5-0.7v-1q1.6 0.1 3.7 0.1 2.2 0.1 4.2 0.1 1.9 0 3.5-0.1 1.6 0 2.6-0.1v1q-0.9 0.1-1.2 0.7-0.4 0.7-0.3 1.6 0.2 0.8 0.5 1.7l6.9 20 4.6-12.9-2.9-8.7q-0.4-1.4-1.1-1.8-0.6-0.6-1.4-0.6v-1q1.4 0.1 3.5 0.1 2 0.1 4 0.1 2.2 0 4.1-0.1 1.9 0 3.1-0.1v1q-1.5 0-2.3 0.3-0.8 0.3-0.9 1.2-0.1 0.8 0.5 2.5l6.4 19.7 4.1-13.2q1.3-3.9 1.2-6.2 0-2.3-1.1-3.3-1.1-1-3.1-1v-1q1.8 0.1 3.2 0.1 1.4 0.1 3 0.1 1 0 1.9-0.1 1.1 0 1.8-0.1zm10 8.5q4.2 0 6.6 2.5 2.4 2.5 2.4 8.2h-12.9q-0.1 0.4-0.1 0.8 0 0.6 0 1.2 0 3.3 0.9 5.3 0.9 1.9 2.2 2.7 1.4 0.9 2.8 0.9 0.8 0 1.9-0.3 1-0.2 2.1-1 1.1-0.8 2.1-2.2l0.8 0.2q-0.5 1.9-1.8 3.7-1.3 1.8-3.2 3-2 1.2-4.8 1.2-3.2 0-5.7-1.3-2.5-1.4-3.9-4.2-1.5-2.9-1.5-7.5 0-4.5 1.6-7.5 1.6-2.9 4.3-4.3 2.8-1.4 6.2-1.4zm2.5 9.8q0.1-2.4-0.2-4.4-0.3-2-1-3.2-0.6-1.2-1.7-1.2-1.4 0-2.4 2.1-1 2-1.3 6.7zm18.9-9.8q2.1 0 3.7 0.4 1.5 0.5 2.2 1 1.7 1 2-1.4h1q-0.1 1.4-0.1 3.4-0.1 1.9-0.1 5.2h-1q-0.2-1.8-0.8-3.5-0.7-1.8-1.9-2.9-1.2-1.1-3.3-1.1-1.3 0-2.2 0.7-0.8 0.8-0.8 2.1 0 1.5 0.8 2.6 0.9 1.1 2.2 2.1 1.4 1 2.8 2.2 1.6 1.1 2.8 2.3 1.2 1.2 1.9 2.6 0.8 1.3 0.8 3.2 0 2.2-1.3 3.8-1.3 1.6-3.4 2.6-2.1 0.9-4.7 0.9-1.6 0-2.8-0.3-1.2-0.4-1.9-0.8-0.7-0.4-1.3-0.6-0.5-0.2-1.1-0.3-0.5-0.1-0.8 0.4-0.3 0.5-0.5 1.2h-1q0.1-1.5 0.1-3.7 0.1-2.2 0.1-5.9h1q0.3 2.6 1 4.6 0.8 2 2.2 3.1 1.3 1.1 3.2 1.1 0.8 0 1.4-0.3 0.8-0.3 1.2-1 0.5-0.6 0.5-1.7 0-2.1-1.4-3.5-1.3-1.4-3.3-3.1-1.5-1.3-2.9-2.6-1.3-1.2-2.1-2.7-0.8-1.5-0.8-3.4 0-2.1 1.2-3.6 1.2-1.6 3.2-2.3 2-0.8 4.2-0.8zm23.1-7.2v7.8h5.2v1h-5.2v19.6q0 1.2 0.4 1.8 0.5 0.4 1.3 0.4 0.7 0 1.5-0.4 0.8-0.5 1.5-1.7l0.8 0.5q-0.9 2-2.6 3.2-1.6 1.2-4.2 1.2-1.5 0-2.8-0.4-1.2-0.4-2-1.3-1.1-1-1.4-2.6-0.3-1.5-0.3-4v-16.3h-3.8v-1h3.8v-6q2.3 0 4.1-0.4 2-0.4 3.7-1.4zm24.4 7.2q2 0 3.3 0.5 1.3 0.5 2 1.3 0.8 0.9 1.1 2.4 0 0.1 0 0.2 1.3-2.5 3.4-3.5 2.1-0.9 4.6-0.9 2.1 0 3.3 0.5 1.3 0.5 2.1 1.3 0.7 0.9 1.1 2.4 0.3 1.5 0.3 3.9v12.9q0 2.1 0.6 2.8 0.7 0.7 2.3 0.7v1q-1 0-2.9-0.1-1.9-0.1-3.7-0.1-1.8 0-3.5 0.1-1.7 0.1-2.6 0.1v-1q1.1 0 1.5-0.7 0.5-0.7 0.5-2.8v-15.2q0-1.1-0.2-1.9-0.3-0.8-0.8-1.2-0.6-0.4-1.6-0.4-1.1 0-2 0.6-0.9 0.7-1.5 1.7-0.4 0.9-0.6 1.9 0 0.7 0 1.6v12.9q0 2.1 0.6 2.8 0.6 0.7 1.9 0.7v1q-0.9 0-2.6-0.1-1.8-0.1-3.5-0.1-1.8 0-3.6 0.1-1.7 0.1-2.5 0.1v-1q1.1 0 1.5-0.7 0.5-0.7 0.5-2.8v-15.2q0-1.1-0.2-1.9-0.2-0.8-0.7-1.2-0.5-0.4-1.4-0.4-1 0-2 0.5-0.9 0.6-1.5 1.7-0.5 1-0.5 2.3v14.2q0 2.1 0.4 2.8 0.4 0.7 1.6 0.7v1q-0.8 0-2.4-0.1-1.7-0.1-3.4-0.1-1.9 0-3.9 0.1-2 0.1-3 0.1v-1q1.6 0 2.2-0.7 0.7-0.7 0.7-2.8v-15.1q0-2.2-0.6-3.2-0.6-1.1-2.3-1.1v-1q1.6 0.2 3 0.2 2.2 0 4.1-0.2 2-0.2 3.6-0.5v3.9q1.1-2.2 3-3.1 1.9-0.9 4.3-0.9zm32.2 25.8q-2.2 0-3.6-0.8-1.5-0.8-2.1-2.2-0.7-1.4-0.7-3 0-2 0.9-3.3 1-1.3 2.5-2.1 1.5-0.8 3.1-1.3 1.6-0.6 3.1-1 1.5-0.6 2.4-1.2 0.9-0.8 0.9-1.9v-3.9q0-1.1-0.3-2-0.3-1-1.1-1.6-0.8-0.6-2.2-0.6-0.8 0-1.7 0.3-0.8 0.2-1.4 0.7 1.5 0.6 2.3 1.6 0.7 1.1 0.7 2.4 0 1.7-1.2 2.8-1.2 1-2.9 1-1.8 0-2.8-1.1-1-1.2-1-2.8 0-1.5 0.7-2.4 0.7-1 2.1-1.9 1.4-0.8 3.4-1.2 2-0.3 4.2-0.3 2.2 0 4.1 0.4 1.9 0.5 3.3 1.8 1 1.1 1.3 2.7 0.3 1.6 0.3 4v13q0 1.2 0.2 1.7 0.2 0.4 0.7 0.4 0.4 0 0.8-0.2 0.4-0.3 0.8-0.6l0.5 0.9q-1 0.8-2.5 1.3-1.4 0.4-3.1 0.4-1.9 0-3-0.4-1.1-0.6-1.6-1.4-0.4-0.9-0.4-2-1.1 1.8-2.7 2.8-1.6 1-4 1zm4-3.4q0.8 0 1.4-0.3 0.6-0.3 1.1-1.1v-10q-0.4 0.7-1 1.3-0.7 0.6-1.4 1.2-0.7 0.6-1.4 1.3-0.6 0.7-1 1.7-0.4 1-0.4 2.4 0 1.8 0.8 2.7 0.7 0.8 1.9 0.8zm31.7-22.4q1.6 0 2.5 0.7 1 0.7 1.4 1.8 0.5 1 0.5 2.1 0 1.9-1.2 3.1-1.1 1.2-2.9 1.2-1.9 0-2.9-0.8-1-0.9-1-2.4 0-1.5 0.6-2.5 0.6-0.9 1.6-1.6-0.7-0.1-1.4 0.2-0.8 0.2-1.4 0.7-0.7 0.5-1.2 1.3-0.5 0.7-0.7 1.5-0.3 0.9-0.3 1.7v13.6q0 2.3 1 3.1 1.1 0.8 3.3 0.8v1q-1.1 0-3.2-0.1-2.2-0.1-4.5-0.1-2.1 0-4.2 0.1-2 0.1-3 0.1v-1q1.5 0 2.2-0.7 0.6-0.7 0.6-2.8v-15.1q0-2.2-0.6-3.2-0.6-1.1-2.2-1.1v-1q1.5 0.2 2.9 0.2 2.2 0 4.1-0.2 2-0.2 3.6-0.5v3.9q0.6-1.2 1.5-2.1 1-0.9 2.2-1.4 1.2-0.5 2.7-0.5zm14.8-12v23.9q0.7-0.1 1.2-0.2 0.7-0.2 1.3-0.7l3.6-3.5q1.7-1.6 1.7-2.9 0.1-1.3-1-2.1-1.1-0.8-2.8-0.9v-1q1.4 0.1 2.9 0.1 1.7 0.1 2.8 0.1 1 0 2.1 0 1.2-0.1 2.3-0.1 1.1 0 1.7-0.1v1q-1.6 0.4-3.2 1.5-1.7 1-3.4 2.7l-2.1 2.2 7.8 14q0.5 0.8 1 1.5 0.5 0.7 1.2 1v1q-0.7 0-2.3-0.1-1.5-0.1-3.1-0.1-1.8 0-3.7 0.1-1.8 0.1-2.8 0.1v-1q1 0 1.3-0.4 0.3-0.5-0.1-1.2l-4.4-8.8q-0.5-0.8-1-1-0.4-0.2-1-0.3v8.2q0 2.1 0.6 2.8 0.6 0.7 2.2 0.7v1q-0.9 0-2.8-0.1-1.8-0.1-3.7-0.1-2 0-4 0.1-2 0.1-3 0.1v-1q1.6 0 2.2-0.7 0.7-0.7 0.7-2.8v-27.3q0-2.1-0.6-3.1-0.6-1.1-2.3-1.1v-1q1.6 0.1 3 0.1 2.2 0 4.1-0.1 2-0.2 3.6-0.5zm-153.6 49.5q-0.1 1.1-0.1 2.2 0 1 0 1.6 0 0.5 0 1 0 0.5 0 0.8h-0.5q-0.4-1.9-0.8-3-0.5-1.1-1.3-1.6-0.8-0.4-2-0.4h-0.8v13.6q0 1 0.2 1.5 0.1 0.5 0.7 0.7 0.6 0.1 1.6 0.1v0.5q-0.7 0-1.9 0-1.1-0.1-2.3-0.1-1.3 0-2.4 0.1-1 0-1.7 0v-0.5q1 0 1.6-0.1 0.5-0.2 0.7-0.7 0.2-0.5 0.2-1.5v-13.6h-0.8q-1.2 0-2 0.4-0.8 0.5-1.3 1.6-0.5 1.1-0.8 3h-0.5q0-0.3 0-0.8 0-0.5 0-1 0-0.6 0-1.6 0-1.1-0.1-2.2 1 0 2.3 0.1 1.3 0 2.5 0 1.3 0 2.4 0 1 0 2.3 0 1.2 0 2.5 0 1.3-0.1 2.3-0.1zm4.1 17.2q-1 0-1.8-0.4-0.7-0.4-1-1.1-0.4-0.7-0.4-1.5 0-1.1 0.5-1.7 0.5-0.7 1.2-1.1 0.8-0.4 1.6-0.6 0.8-0.3 1.6-0.6 0.7-0.2 1.2-0.6 0.5-0.3 0.5-0.9v-1.7q0-0.8-0.2-1.3-0.3-0.5-0.7-0.7-0.4-0.3-1.1-0.3-0.5 0-1.1 0.2-0.5 0.1-0.9 0.5 0.6 0.2 1 0.7 0.3 0.4 0.3 1.1 0 0.7-0.5 1.1-0.5 0.4-1.2 0.4-0.8 0-1.2-0.5-0.4-0.5-0.4-1.1 0-0.7 0.3-1.1 0.4-0.5 1-0.9 0.6-0.4 1.5-0.6 0.9-0.2 2-0.2 1.1 0 1.9 0.2 0.8 0.2 1.4 0.8 0.6 0.5 0.8 1.4 0.1 0.8 0.1 1.9v6.6q0 0.6 0.2 0.9 0.1 0.2 0.4 0.2 0.3 0 0.5-0.1 0.2-0.1 0.5-0.3l0.2 0.4q-0.5 0.4-1.1 0.6-0.6 0.3-1.4 0.3-0.8 0-1.3-0.3-0.5-0.2-0.7-0.7-0.3-0.4-0.3-1-0.6 0.9-1.4 1.4-0.8 0.6-2 0.6zm1.4-1.4q0.6 0 1.1-0.3 0.5-0.3 0.9-0.9v-4.9q-0.2 0.4-0.7 0.7-0.4 0.3-0.9 0.6-0.5 0.2-1 0.6-0.4 0.4-0.7 0.9-0.3 0.6-0.3 1.4 0 0.9 0.4 1.4 0.5 0.5 1.2 0.5zm12-17.6v16.6q0 1 0.4 1.3 0.4 0.4 1.3 0.4v0.5q-0.5 0-1.4 0-0.8-0.1-1.7-0.1-0.9 0-1.9 0.1-0.9 0-1.3 0v-0.5q0.9 0 1.2-0.4 0.4-0.3 0.4-1.3v-13.7q0-1.1-0.3-1.6-0.4-0.5-1.3-0.5v-0.5q0.7 0 1.5 0 0.9 0 1.7 0 0.8-0.1 1.4-0.3zm8.6 6.1q2.1 0 3.3 1.2 1.2 1.3 1.2 4.1h-7q0 0.2 0 0.5 0 0.4 0 0.8 0 1.6 0.5 2.7 0.4 1.1 1.2 1.6 0.8 0.5 1.6 0.5 0.5 0 1.1-0.2 0.6-0.2 1.1-0.6 0.6-0.5 1.1-1.3l0.4 0.2q-0.3 0.8-0.9 1.7-0.6 0.8-1.5 1.3-1 0.5-2.3 0.5-1.6 0-2.9-0.7-1.2-0.7-1.9-2.1-0.7-1.5-0.7-3.5 0-2.2 0.7-3.7 0.7-1.5 2-2.3 1.3-0.7 3-0.7zm1.7 4.8q0.1-1.1-0.1-2.1-0.2-1-0.6-1.6-0.5-0.6-1.1-0.6-0.9 0-1.6 1-0.7 1.1-0.8 3.3zm12.8-4.8q1 0 1.6 0.2 0.7 0.3 1 0.7 0.5 0.4 0.6 1.2 0.2 0.7 0.2 1.9v6.5q0 1 0.4 1.3 0.4 0.4 1.3 0.4v0.5q-0.5 0-1.4 0-0.9-0.1-1.7-0.1-0.9 0-1.7 0.1-0.9 0-1.3 0v-0.5q0.8 0 1.1-0.4 0.3-0.3 0.3-1.3v-7.3q0-0.7-0.1-1.2-0.1-0.5-0.5-0.8-0.3-0.3-1-0.3-0.8 0-1.4 0.4-0.6 0.5-1 1.2-0.3 0.8-0.3 1.7v6.3q0 1 0.3 1.3 0.3 0.4 1.1 0.4v0.5q-0.4 0-1.3 0-0.8-0.1-1.6-0.1-0.9 0-1.8 0.1-0.9 0-1.4 0v-0.5q0.9 0 1.3-0.4 0.3-0.3 0.3-1.3v-7.6q0-1.1-0.3-1.6-0.3-0.5-1.3-0.5v-0.5q0.8 0.1 1.5 0.1 0.9 0 1.7-0.1 0.8-0.1 1.5-0.3v2.4q0.6-1.3 1.6-1.9 1.1-0.5 2.3-0.5zm10.5-3.6v3.9h3.1v0.5h-3.1v9.5q0 0.9 0.4 1.3 0.3 0.3 0.8 0.3 0.6 0 1.1-0.4 0.4-0.4 0.8-1.4l0.4 0.2q-0.4 1.2-1.1 2-0.8 0.7-2.1 0.7-0.9 0-1.4-0.2-0.6-0.2-1-0.6-0.5-0.5-0.7-1.3-0.2-0.7-0.2-2v-8.1h-2.1v-0.5h2.1v-3.3q0.9 0 1.6-0.2 0.8-0.1 1.4-0.4zm18.3-1q1.6 0 2.6 0.5 1 0.4 1.9 1 0.3 0.3 0.5 0.3 0.4 0 0.6-1.5h0.5q0 0.9-0.1 2.2 0 1.4 0 3.5h-0.5q-0.2-1.3-0.5-2.3-0.3-1-1.2-1.8-0.6-0.6-1.5-1-1-0.4-1.9-0.4-1.3 0-2.3 0.7-0.9 0.6-1.5 1.8-0.7 1.1-1 2.6-0.3 1.5-0.3 3.2 0 4.3 1.3 6.4 1.2 2 3.7 2 0.6 0 1.1-0.2 0.5-0.2 0.8-0.4 0.4-0.3 0.5-0.5 0.2-0.3 0.2-0.8v-2.3q0-1.1-0.2-1.6-0.2-0.5-0.7-0.7-0.6-0.2-1.6-0.2v-0.5q0.5 0 1.2 0.1 0.6 0 1.4 0 0.7 0 1.3 0 0.9 0 1.7 0 0.8-0.1 1.3-0.1v0.5q-0.5 0-0.8 0.2-0.2 0.1-0.3 0.5 0 0.5 0 1.3v4.8h-0.5q-0.1-0.4-0.2-0.9-0.2-0.5-0.5-0.5-0.2 0-0.4 0.1-0.2 0.1-0.8 0.4-0.8 0.5-1.8 0.9-0.9 0.3-2 0.3-2.7 0-4.6-1-1.8-1-2.8-2.9-0.9-2-0.9-4.7 0-2.7 1-4.8 1.1-2 3-3.1 1.9-1.1 4.3-1.1zm16.5 4.6q0.7 0 1.2 0.3 0.5 0.3 0.8 0.8 0.2 0.4 0.2 1 0 0.8-0.5 1.3-0.4 0.5-1.2 0.5-0.7 0-1.2-0.4-0.4-0.4-0.4-1 0-0.6 0.3-1 0.3-0.4 0.7-0.7-0.3-0.1-0.6-0.1-0.6 0.1-1.1 0.4-0.5 0.4-0.8 0.9-0.4 0.5-0.5 1.1-0.2 0.6-0.2 1.2v5.9q0 1.2 0.6 1.6 0.6 0.4 1.7 0.4v0.5q-0.5 0-1.6 0-1-0.1-2.1-0.1-1 0-1.9 0.1-0.9 0-1.4 0v-0.5q0.9 0 1.3-0.4 0.4-0.3 0.4-1.3v-7.6q0-1.1-0.4-1.6-0.3-0.5-1.3-0.5v-0.5q0.8 0.1 1.5 0.1 0.9 0 1.7-0.1 0.8-0.1 1.5-0.3v2.5q0.3-0.6 0.7-1.2 0.5-0.6 1.2-1 0.6-0.3 1.4-0.3zm8.8 0q1.6 0 2.9 0.6 1.3 0.7 2 2.1 0.8 1.5 0.8 3.8 0 2.4-0.8 3.8-0.7 1.4-2 2.1-1.3 0.6-2.9 0.6-1.7 0-3-0.6-1.3-0.7-2-2.1-0.8-1.4-0.8-3.8 0-2.3 0.8-3.8 0.7-1.4 2-2.1 1.3-0.6 3-0.6zm0 0.4q-1.2 0-1.9 1.5-0.7 1.4-0.7 4.6 0 3.2 0.7 4.6 0.7 1.5 1.9 1.5 1.1 0 1.8-1.5 0.7-1.4 0.7-4.6 0-3.2-0.7-4.6-0.7-1.5-1.8-1.5zm18.9-0.4v10.1q0 1.1 0.3 1.6 0.4 0.5 1.3 0.5v0.5q-0.7 0-1.5 0-0.9 0-1.7 0-0.8 0.1-1.5 0.3v-2.4q-0.6 1.3-1.6 1.9-1 0.5-2.2 0.5-1 0-1.6-0.2-0.7-0.3-1-0.7-0.4-0.5-0.6-1.2-0.2-0.7-0.2-1.9v-6.1q0-1.1-0.3-1.6-0.4-0.5-1.3-0.5v-0.5q0.8 0.1 1.5 0.1 0.9 0 1.7-0.1 0.8-0.1 1.4-0.3v9.8q0 0.7 0.1 1.2 0.2 0.5 0.5 0.8 0.3 0.3 1 0.3 0.7 0 1.3-0.5 0.6-0.4 1-1.1 0.3-0.8 0.3-1.7v-5.9q0-1.1-0.3-1.6-0.4-0.5-1.3-0.5v-0.5q0.8 0.1 1.5 0.1 0.9 0 1.7-0.1 0.8-0.1 1.5-0.3zm7.2 0.1v2.4q0.4-1.1 1.2-1.7 1.1-0.8 2.6-0.8 1.2 0 2.2 0.7 1 0.6 1.6 1.9 0.5 1.4 0.5 3.4 0 1.5-0.3 2.9-0.4 1.3-1.1 2.2-0.7 0.9-1.7 1.4-1.1 0.5-2.4 0.5-1 0-1.8-0.3-0.5-0.3-0.8-0.6v2.6q0 1.1 0.6 1.5 0.6 0.3 1.6 0.3v0.5q-0.6 0-1.6 0-1-0.1-2.2-0.1-0.8 0-1.6 0.1-0.9 0-1.3 0v-0.5q0.8 0 1.2-0.3 0.3-0.3 0.3-1.2v-12.1q0-1-0.3-1.6-0.4-0.5-1.3-0.5v-0.5q0.7 0.1 1.4 0.1 1 0 1.8-0.1 0.7-0.1 1.4-0.2zm0.7 12q0.5 0.3 1.2 0.3 1.1 0 1.8-0.7 0.7-0.8 0.9-2.2 0.3-1.3 0.3-3.1 0-2-0.2-3.2-0.3-1.2-0.8-1.8-0.5-0.5-1.3-0.5-1 0-1.7 0.8-0.7 0.6-0.9 1.7v8.1q0.3 0.3 0.7 0.6z"/>
	<path id="Shape 1" fill-rule="evenodd" class="s1" d="m300 0v150h-300v-150z"/>
</svg>