<svg xmlns="http://www.w3.org/2000/svg" xmlns:xlink="http://www.w3.org/1999/xlink" width="2560" height="1440" viewBox="0 0 1920 1080"><g data-name="P"><clipPath id="a"><path transform="matrix(1 0 0 -1 0 1080)" d="M0 0h1920v1080H0z"/></clipPath><g clip-path="url(#a)"><symbol id="b"><path d="M1.009.709v-.02A.146.146 0 0 1 .962.65.246.246 0 0 1 .919.56L.746 0a.211.211 0 0 1-.021.001.254.254 0 0 1-.045 0L.659 0l-.21.639C.443.658.435.67.426.677a.05.05 0 0 1-.03.012v.02A8.801 8.801 0 0 1 .639.707l.065.002v-.02A.167.167 0 0 1 .656.682a.029.029 0 0 1-.02-.024.138.138 0 0 1 .01-.053L.785.18.759.129.866.47a.428.428 0 0 1 .025.129c0 .032-.009.055-.024.068a.091.091 0 0 1-.063.022v.02A8.964 8.964 0 0 0 .932.706a.821.821 0 0 1 .077.003m-.718 0v-.02C.278.687.27.682.265.673A.054.054 0 0 1 .26.641.237.237 0 0 1 .269.605L.42.17.393.131.517.48.531.452.376 0a.222.222 0 0 1-.022.001.243.243 0 0 1-.044 0L.289 0 .061.625a.107.107 0 0 1-.03.049A.058.058 0 0 1 0 .689v.02A8.726 8.726 0 0 1 .237.707l.054.002z"/></symbol><symbol id="c"><path d="M.251.546A.182.182 0 0 0 .389.494C.422.459.439.402.439.323H.118L.117.342h.186a.486.486 0 0 1-.004.09.195.195 0 0 1-.02.067C.27.516.259.524.244.524.224.524.207.51.193.481A.407.407 0 0 1 .167.335L.171.328A.278.278 0 0 1 .187.171.128.128 0 0 1 .234.113.11.11 0 0 1 .292.096c.011 0 .024.002.038.005.014.003.029.01.044.021.015.01.03.026.044.047L.435.163A.25.25 0 0 0 .33.024.193.193 0 0 0 .231 0a.252.252 0 0 0-.118.027.202.202 0 0 0-.083.087A.35.35 0 0 0 0 .27c0 .063.011.115.033.156a.21.21 0 0 0 .09.09c.038.02.08.03.128.03z"/></symbol><symbol id="d"><path d="M.184.546A.256.256 0 0 0 .307.517C.33.502.344.512.349.545H.37A1.61 1.61 0 0 1 .366.367H.345A.285.285 0 0 1 .327.44a.141.141 0 0 1-.039.059.096.096 0 0 1-.068.024.069.069 0 0 1-.046-.016.056.056 0 0 1-.018-.044c0-.02.006-.038.018-.053A.243.243 0 0 1 .22.366 1.137 1.137 0 0 0 .335.272.192.192 0 0 0 .376.219.135.135 0 0 0 .392.151.123.123 0 0 0 .365.072.18.18 0 0 0 .294.019a.245.245 0 0 0-.223.016.094.094 0 0 1-.022.007C.042.042.037.04.032.033A.078.078 0 0 1 .021.007H0l.003.078.001.122h.021A.376.376 0 0 1 .047.112.169.169 0 0 1 .092.047.1.1 0 0 1 .189.03a.06.06 0 0 1 .034.057.1.1 0 0 1-.028.073.849.849 0 0 1-.069.065 1.687 1.687 0 0 0-.06.053.26.26 0 0 0-.045.057.143.143 0 0 0-.017.07c0 .03.008.055.025.076.017.021.04.037.067.048a.227.227 0 0 0 .088.017z"/></symbol><symbol id="e"><path d="M.242.695V.532H.35v-.02H.242V.103c0-.017.003-.029.009-.036C.257.06.266.057.278.057c.01 0 .02.003.031.01A.092.092 0 0 1 .34.101l.016-.01A.168.168 0 0 0 .303.025.14.14 0 0 0 .216 0a.18.18 0 0 0-.059.009.102.102 0 0 0-.071.079.49.49 0 0 0-.006.085v.339H0v.02h.08v.125c.031 0 .06.003.086.009a.284.284 0 0 1 .076.029z"/></symbol><symbol id="f"><path d="M.374.532A.18.18 0 0 0 .443.521.11.11 0 0 0 .485.493a.116.116 0 0 0 .023-.05.366.366 0 0 0 .007-.08v-.27c0-.028.004-.047.011-.057C.534.026.548.021.567.021V0a2.38 2.38 0 0 1-.256 0v.021c.015 0 .026.005.032.015.007.01.01.029.01.057v.318A.163.163 0 0 1 .349.45a.044.044 0 0 1-.014.025C.328.481.319.484.306.484A.08.08 0 0 1 .264.472.09.09 0 0 1 .233.438.102.102 0 0 1 .222.39V.093c0-.028.003-.047.009-.057C.237.026.248.021.264.021V0a1.901 1.901 0 0 1-.202.002L0 0v.021c.022 0 .037.005.046.015.01.01.014.029.014.057v.316a.13.13 0 0 1-.013.066C.038.49.023.497 0 .497v.021a.665.665 0 0 1 .147 0 .72.72 0 0 1 .075.011V.448c.015.03.036.051.062.064.027.013.057.02.09.02m.301 0A.18.18 0 0 0 .744.521.11.11 0 0 0 .786.493a.116.116 0 0 0 .023-.05.366.366 0 0 0 .007-.08v-.27C.816.065.82.046.829.036.839.026.854.021.876.021V0a2.63 2.63 0 0 1-.264 0v.021c.015 0 .026.005.032.015.007.01.01.029.01.057v.318A.132.132 0 0 1 .649.45a.043.043 0 0 1-.017.025C.625.481.614.484.599.484A.072.072 0 0 1 .557.47.099.099 0 0 1 .526.435.13.13 0 0 1 .513.386l-.006.05a.15.15 0 0 0 .071.076c.03.013.062.02.097.02z"/></symbol><symbol id="g"><path d="M.134 0a.153.153 0 0 0-.076.017.11.11 0 0 0-.044.047A.14.14 0 0 0 0 .126c0 .028.006.051.019.069.013.018.03.032.051.043.02.011.042.02.065.028L.2.287c.02.007.037.016.05.025.013.01.019.023.019.038v.083a.118.118 0 0 1-.007.041.059.059 0 0 1-.023.032.07.07 0 0 1-.045.013.123.123 0 0 1-.035-.005.081.081 0 0 1-.03-.016.09.09 0 0 0 .047-.033.081.081 0 0 0 .016-.049.073.073 0 0 0-.026-.059.09.09 0 0 0-.06-.021.074.074 0 0 0-.059.024.088.088 0 0 0-.02.058c0 .02.005.037.015.05a.14.14 0 0 0 .044.038c.02.011.043.02.07.025A.454.454 0 0 0 .329.529.136.136 0 0 0 .397.492.107.107 0 0 0 .425.436.484.484 0 0 0 .431.352v-.27c0-.017.001-.028.004-.035A.016.016 0 0 1 .45.038c.006 0 .012.002.017.005l.016.011.011-.017A.162.162 0 0 0 .442.009.225.225 0 0 0 .314.01a.072.072 0 0 0-.032.029.098.098 0 0 0-.01.04.184.184 0 0 0-.055-.058A.152.152 0 0 0 .134 0m.083.072c.01 0 .02.002.028.006a.07.07 0 0 1 .024.023v.208A.115.115 0 0 0 .247.282 1.201 1.201 0 0 0 .19.23.137.137 0 0 1 .168.194.132.132 0 0 1 .16.145C.16.119.165.1.176.089A.054.054 0 0 1 .217.072z"/></symbol><symbol id="h"><path d="M.354.532c.023 0 .04-.005.054-.015A.08.08 0 0 0 .437.48.115.115 0 0 0 .446.436.091.091 0 0 0 .422.37.079.079 0 0 0 .361.345C.334.345.314.351.3.363a.064.064 0 0 0-.021.05c0 .02.004.038.013.051.01.013.02.025.034.034-.01.001-.02 0-.029-.004a.08.08 0 0 1-.03-.015.111.111 0 0 1-.024-.026.123.123 0 0 1-.021-.068V.103c0-.032.007-.054.021-.065C.258.027.281.021.312.021V0A3.484 3.484 0 0 1 0 0v.021c.022 0 .037.005.046.015.01.01.014.029.014.057v.316a.13.13 0 0 1-.013.066C.038.49.023.497 0 .497v.021a.665.665 0 0 1 .147 0 .72.72 0 0 1 .075.011V.447a.14.14 0 0 0 .076.074.142.142 0 0 0 .056.011z"/></symbol><symbol id="i"><path d="M.222.782V.093c0-.028.004-.047.013-.057C.244.026.259.021.28.021V0a2.374 2.374 0 0 1-.218.002L0 0v.021c.022 0 .037.005.046.015.01.01.014.029.014.057v.569a.13.13 0 0 1-.013.066C.039.743.023.75 0 .75v.021a.665.665 0 0 1 .148 0 .726.726 0 0 1 .074.011m.33-.264v-.02A.206.206 0 0 1 .484.467.427.427 0 0 1 .415.41L.359.353l.008.016.166-.296a.418.418 0 0 1 .02-.031.071.071 0 0 1 .026-.021V0a1.486 1.486 0 0 1-.113.004A1.503 1.503 0 0 1 .331 0v.021c.013 0 .022.003.027.009.005.006.004.014-.002.025L.263.237C.257.248.25.256.243.259a.056.056 0 0 1-.025.005v.019c.011 0 .021.002.03.005.01.003.018.008.026.015L.35.376c.023.022.035.042.035.059a.05.05 0 0 1-.022.044.1.1 0 0 1-.057.019v.02A11.343 11.343 0 0 1 .425.515h.044a1.18 1.18 0 0 0 .083.003z"/></symbol><symbol id="j"><path d="M0 0z"/></symbol><use xlink:href="#b" transform="matrix(116 0 0 -116 693.084 567)"/><use xlink:href="#c" transform="matrix(116 0 0 -116 802.843 568.507)"/><use xlink:href="#d" transform="matrix(116 0 0 -116 859.823 568.507)"/><use xlink:href="#e" transform="matrix(116 0 0 -116 906.594 568.507)"/><use xlink:href="#f" transform="matrix(116 0 0 -116 947.913 566.883)"/><use xlink:href="#g" transform="matrix(116 0 0 -116 1051.408 567.695)"/><use xlink:href="#h" transform="matrix(116 0 0 -116 1109.664 566.883)"/><use xlink:href="#i" transform="matrix(116 0 0 -116 1158.523 566.883)"/><use xlink:href="#j" transform="matrix(116 0 0 -116 1223.158 566.883)"/></g><g data-name="P"><symbol id="k"><path d="M.581.708A1.828 1.828 0 0 1 .575.522L.577.486H.554a.519.519 0 0 1-.027.118.117.117 0 0 1-.047.062.172.172 0 0 1-.089.019H.348v-.57c0-.027.002-.047.007-.06a.045.045 0 0 1 .03-.027A.34.34 0 0 1 .451.02V0A3.962 3.962 0 0 1 .13 0v.02c.029.001.05.004.065.008a.045.045 0 0 1 .03.027.17.17 0 0 1 .008.06v.57H.189A.172.172 0 0 1 .101.666.115.115 0 0 1 .053.604.566.566 0 0 1 .027.486H.004l.002.036a.926.926 0 0 1-.001.104C.005.653.003.68 0 .708A25.916 25.916 0 0 1 .291.705a47937.543 47937.543 0 0 0 .196.001l.094.002z"/></symbol><symbol id="l"><path d="M.132 0A.151.151 0 0 0 .06.016.106.106 0 0 0 .015.06.133.133 0 0 0 0 .124c0 .03.007.053.02.071A.15.15 0 0 0 .071.24c.021.011.044.02.067.028L.205.29a.21.21 0 0 1 .052.025c.014.01.021.022.021.037V.42a.115.115 0 0 1-.012.057.064.064 0 0 1-.031.031.107.107 0 0 1-.046.009A.189.189 0 0 1 .14.51.07.07 0 0 1 .099.485.067.067 0 0 0 .135.461.063.063 0 0 0 .15.418.054.054 0 0 0 .131.374.067.067 0 0 0 .085.358c-.02 0-.036.006-.046.019a.075.075 0 0 0-.015.046.07.07 0 0 0 .013.044.17.17 0 0 0 .036.032c.016.01.036.02.061.027a.301.301 0 0 0 .158.001.119.119 0 0 0 .086-.088.368.368 0 0 0 .008-.083V.08A.08.08 0 0 1 .392.044C.397.037.404.034.414.034c.007 0 .013.002.019.005a.147.147 0 0 1 .023.015l.01-.017A.2.2 0 0 0 .423.01.126.126 0 0 0 .369 0a.117.117 0 0 0-.052.01.067.067 0 0 0-.03.029.11.11 0 0 0-.009.047.19.19 0 0 0-.062-.064A.158.158 0 0 0 .132 0M.18.048c.019 0 .036.005.052.016a.16.16 0 0 1 .046.048v.199A.095.095 0 0 0 .246.283 2.686 2.686 0 0 0 .201.26.326.326 0 0 1 .155.232.124.124 0 0 1 .12.193.12.12 0 0 1 .106.132c0-.026.007-.047.02-.062A.07.07 0 0 1 .18.048z"/></symbol><symbol id="m"><path d="M.18.784V.093C.18.065.185.046.196.036.207.026.226.021.252.021V0a1.9 1.9 0 0 1-.198.002A2.13 2.13 0 0 1 0 0v.021c.026 0 .044.005.055.015.011.01.017.029.017.057v.571c0 .03-.005.052-.015.066C.047.745.028.752 0 .752v.021a.665.665 0 0 1 .125 0A.4.4 0 0 1 .18.784z"/></symbol><symbol id="n"><path d="M.232.544A.18.18 0 0 0 .37.491C.403.456.42.4.42.323H.075L.073.342h.241a.383.383 0 0 1-.008.09.168.168 0 0 1-.028.067.06.06 0 0 1-.05.025C.199.524.174.509.153.478A.3.3 0 0 1 .115.333L.118.328A2.492 2.492 0 0 1 .115.265C.115.219.122.18.136.149A.168.168 0 0 1 .191.078.122.122 0 0 1 .26.055a.149.149 0 0 1 .101.037.193.193 0 0 1 .041.057l.02-.008A.248.248 0 0 0 .385.074.195.195 0 0 0 .321.02.197.197 0 0 0 .23 0a.234.234 0 0 0-.122.031.21.21 0 0 0-.08.091.324.324 0 0 0-.028.14c0 .06.01.11.029.152.02.042.046.074.081.096a.221.221 0 0 0 .122.034z"/></symbol><symbol id="o"><path d="M.348.53A.163.163 0 0 0 .413.519.104.104 0 0 0 .481.442.327.327 0 0 0 .489.361V.093c0-.028.005-.047.016-.057.011-.01.03-.015.056-.015V0a1.9 1.9 0 0 1-.192.002L.319 0v.021c.023 0 .039.005.048.015.01.01.014.029.014.057v.296c0 .02-.002.037-.005.052a.067.067 0 0 1-.021.038C.345.489.328.494.307.494A.11.11 0 0 1 .241.473.148.148 0 0 1 .196.415.197.197 0 0 1 .18.334V.093C.18.065.185.046.194.036.204.026.22.021.242.021V0a1.683 1.683 0 0 1-.187.002L0 0v.021c.026 0 .044.005.055.015.011.01.017.029.017.057v.314c0 .03-.005.052-.015.066C.047.488.028.495 0 .495v.021a.664.664 0 0 1 .125 0A.4.4 0 0 1 .18.527V.418a.17.17 0 0 0 .071.087.2.2 0 0 0 .097.025z"/></symbol><symbol id="p"><path d="M.2.695V.529h.138v-.02H.2V.116C.2.089.205.069.215.058.225.047.239.041.258.041c.017 0 .033.007.046.021A.17.17 0 0 1 .34.133L.359.126a.21.21 0 0 0-.043-.09C.296.012.266 0 .227 0A.157.157 0 0 0 .17.009a.11.11 0 0 0-.04.024.12.12 0 0 0-.03.055.363.363 0 0 0-.008.085v.336H0v.02h.092v.146c.02 0 .04.002.058.005A.23.23 0 0 1 .2.695z"/></symbol><symbol id="q"><path d="M0 0z"/></symbol><symbol id="r"><path d="M.336.736c.044 0 .08-.007.107-.02A.4.4 0 0 0 .518.671c.009-.007.015-.01.02-.01.013 0 .021.02.025.061h.023A2.765 2.765 0 0 1 .582.488H.559A.652.652 0 0 1 .54.577a.158.158 0 0 1-.039.07.18.18 0 0 1-.071.05.226.226 0 0 1-.088.018A.165.165 0 0 1 .25.689.208.208 0 0 1 .182.617.41.41 0 0 1 .14.506.641.641 0 0 1 .126.367c0-.12.018-.208.055-.264A.19.19 0 0 1 .349.02a.15.15 0 0 1 .055.009.205.205 0 0 1 .038.018.063.063 0 0 1 .022.023.081.081 0 0 1 .005.031v.097c0 .029-.003.05-.008.063a.042.042 0 0 1-.029.028.212.212 0 0 1-.064.009v.02A3.245 3.245 0 0 1 .467.315h.052a1.903 1.903 0 0 1 .114.003v-.02A.076.076 0 0 1 .601.291C.594.287.59.279.587.267A.366.366 0 0 1 .584.212V.014h-.02a.137.137 0 0 1-.008.037c-.004.013-.01.02-.019.02A.043.043 0 0 1 .522.068.195.195 0 0 1 .497.053.367.367 0 0 0 .424.014a.373.373 0 0 0-.269.028.284.284 0 0 0-.116.123A.439.439 0 0 0 0 .357a.44.44 0 0 0 .043.201c.03.057.069.1.119.131.05.031.109.047.174.047z"/></symbol><symbol id="s"><path d="M.322.53C.342.53.358.526.371.518A.077.077 0 0 0 .402.487.077.077 0 0 0 .413.446a.074.074 0 0 0-.018-.05.057.057 0 0 0-.046-.02.065.065 0 0 0-.043.015.052.052 0 0 0-.017.041A.06.06 0 0 0 .3.469c.008.01.017.019.027.025a.033.033 0 0 1-.024.007.088.088 0 0 1-.05-.018.14.14 0 0 1-.039-.042A.221.221 0 0 1 .18.333v-.23C.18.07.189.048.207.037A.148.148 0 0 1 .282.021V0A3.516 3.516 0 0 1 0 0v.021c.026 0 .044.005.055.015.011.01.017.029.017.057v.314c0 .03-.005.052-.015.066C.047.488.028.495 0 .495v.021a.664.664 0 0 1 .125 0A.4.4 0 0 1 .18.527V.412c.008.02.019.038.032.056.013.018.03.033.048.044C.279.524.3.53.322.53z"/></symbol><symbol id="t"><path d="M.233.544c.045 0 .084-.01.119-.028A.2.2 0 0 0 .435.428.342.342 0 0 0 .466.271.342.342 0 0 0 .435.114.202.202 0 0 0 .352.027.254.254 0 0 0 .233 0a.258.258 0 0 0-.119.027.2.2 0 0 0-.084.087.352.352 0 0 0-.03.157c0 .065.01.117.03.157a.2.2 0 0 0 .084.088.25.25 0 0 0 .119.028m0-.02C.198.524.17.504.148.464A.417.417 0 0 1 .115.271c0-.09.011-.154.033-.193C.17.039.198.02.233.02c.034 0 .062.02.084.058.023.04.034.104.034.193 0 .09-.011.154-.034.193-.022.04-.05.06-.084.06z"/></symbol><symbol id="u"><path d="M.481.541V.122A.12.12 0 0 1 .496.055C.506.041.526.034.553.034V.013a.643.643 0 0 1-.125 0A.268.268 0 0 1 .373.002v.109a.17.17 0 0 0-.07-.086.185.185 0 0 0-.156-.014.121.121 0 0 0-.043.027.111.111 0 0 0-.025.051.383.383 0 0 0-.007.08v.252c0 .03-.005.052-.015.066C.047.502.028.509 0 .509V.53a.665.665 0 0 1 .125 0A.4.4 0 0 1 .18.541v-.4c0-.02.001-.037.004-.053A.065.065 0 0 1 .203.05C.213.04.229.036.251.036c.023 0 .044.007.062.021a.141.141 0 0 1 .044.057c.01.024.016.051.016.081v.226c0 .03-.005.052-.015.066C.348.502.329.509.301.509V.53a.665.665 0 0 1 .125 0 .4.4 0 0 1 .055.011z"/></symbol><symbol id="v"><path d="M.18.708V.095c0-.03.008-.049.025-.059A.134.134 0 0 1 .274.021V0L.21.003A3.621 3.621 0 0 1 .008 0v.021c.023 0 .04.005.049.014.01.009.015.025.015.05v.503c0 .03-.005.052-.015.066C.047.669.028.676 0 .676v.021a.665.665 0 0 1 .125 0C.145.7.163.703.18.708m.159.003c.035 0 .066-.01.093-.029A.185.185 0 0 0 .498.599a.453.453 0 0 0 .01-.251.289.289 0 0 0-.043-.094A.211.211 0 0 0 .394.19.213.213 0 0 0 .292.167a.157.157 0 0 0-.078.019.112.112 0 0 0-.047.048l.01.014A.112.112 0 0 1 .213.207.104.104 0 0 1 .272.191c.035 0 .062.011.081.033.02.023.034.053.042.091a.65.65 0 0 1 .012.131.586.586 0 0 1-.012.132.148.148 0 0 1-.036.074.079.079 0 0 1-.058.024A.115.115 0 0 1 .219.64.175.175 0 0 1 .175.532l-.01.021c.009.05.029.089.06.116.032.028.07.042.114.042z"/></symbol><use xlink:href="#k" transform="matrix(55 0 0 -55 803.283 625.195)"/><use xlink:href="#l" transform="matrix(55 0 0 -55 836.646 625.58)"/><use xlink:href="#m" transform="matrix(55 0 0 -55 862.474 625.195)"/><use xlink:href="#n" transform="matrix(55 0 0 -55 878.237 625.965)"/><use xlink:href="#o" transform="matrix(55 0 0 -55 903.955 625.195)"/><use xlink:href="#p" transform="matrix(55 0 0 -55 934.623 625.965)"/><use xlink:href="#q" transform="matrix(55 0 0 -55 952.091 625.195)"/><use xlink:href="#r" transform="matrix(55 0 0 -55 967.139 625.965)"/><use xlink:href="#s" transform="matrix(55 0 0 -55 1004.022 625.195)"/><use xlink:href="#t" transform="matrix(55 0 0 -55 1027.76 625.965)"/><use xlink:href="#u" transform="matrix(55 0 0 -55 1055.513 625.965)"/><use xlink:href="#v" transform="matrix(55 0 0 -55 1087.171 635.15)"/></g></g></svg>